<?xml version="1.0" encoding="UTF-8" standalone="no"?>
<!DOCTYPE svg PUBLIC "-//W3C//DTD SVG 1.1//EN"
 "http://www.w3.org/Graphics/SVG/1.1/DTD/svg11.dtd">
<!-- Generated by graphviz version 12.2.0 (20241103.1931)
 -->
<!-- Pages: 1 -->
<svg width="156pt" height="138pt"
 viewBox="0.00 0.00 156.32 137.76" xmlns="http://www.w3.org/2000/svg" xmlns:xlink="http://www.w3.org/1999/xlink">
<g id="graph0" class="graph" transform="scale(1 1) rotate(0) translate(4 133.76)">
<polygon fill="white" stroke="none" points="-4,4 -4,-133.76 152.32,-133.76 152.32,4 -4,4"/>
<!-- 75 -->
<g id="node1" class="node">
<title>75</title>
<ellipse fill="none" stroke="black" cx="27" cy="-74.3" rx="27" ry="18"/>
<text text-anchor="middle" x="27" y="-69.25" font-family="Times,serif" font-size="14.00">75</text>
</g>
<!-- 29 -->
<g id="node2" class="node">
<title>29</title>
<ellipse fill="none" stroke="black" cx="121.32" cy="-50.8" rx="27" ry="18"/>
<text text-anchor="middle" x="121.32" y="-45.75" font-family="Times,serif" font-size="14.00">29</text>
</g>
<!-- 75&#45;&gt;29 -->
<g id="edge1" class="edge">
<title>75&#45;&gt;29</title>
<path fill="none" stroke="black" d="M52.77,-67.88C62.55,-65.44 73.87,-62.62 84.47,-59.98"/>
<polygon fill="black" stroke="black" points="85.25,-63.39 94.11,-57.58 83.56,-56.6 85.25,-63.39"/>
</g>
<!-- 53 -->
<g id="node3" class="node">
<title>53</title>
<ellipse fill="none" stroke="black" cx="88.49" cy="-18" rx="27" ry="18"/>
<text text-anchor="middle" x="88.49" y="-12.95" font-family="Times,serif" font-size="14.00">53</text>
</g>
<!-- 75&#45;&gt;53 -->
<g id="edge2" class="edge">
<title>75&#45;&gt;53</title>
<path fill="none" stroke="black" d="M43.16,-59.51C49.46,-53.74 56.83,-46.99 63.77,-40.63"/>
<polygon fill="black" stroke="black" points="66.1,-43.25 71.11,-33.91 61.37,-38.08 66.1,-43.25"/>
</g>
<!-- 47 -->
<g id="node4" class="node">
<title>47</title>
<ellipse fill="none" stroke="black" cx="62.14" cy="-111.76" rx="27" ry="18"/>
<text text-anchor="middle" x="62.14" y="-106.71" font-family="Times,serif" font-size="14.00">47</text>
</g>
<!-- 75&#45;&gt;47 -->
<g id="edge3" class="edge">
<title>75&#45;&gt;47</title>
<path fill="none" stroke="black" d="M41.29,-89.54C41.42,-89.68 41.56,-89.82 41.69,-89.96"/>
<polygon fill="black" stroke="black" points="37.31,-90.41 46.71,-95.31 42.42,-85.62 37.31,-90.41"/>
</g>
<!-- 61 -->
<g id="node5" class="node">
<title>61</title>
<ellipse fill="none" stroke="black" cx="110.63" cy="-97.44" rx="27" ry="18"/>
<text text-anchor="middle" x="110.63" y="-92.39" font-family="Times,serif" font-size="14.00">61</text>
</g>
<!-- 75&#45;&gt;61 -->
<g id="edge4" class="edge">
<title>75&#45;&gt;61</title>
<path fill="none" stroke="black" d="M52.09,-81.25C59.06,-83.17 66.76,-85.3 74.23,-87.37"/>
<polygon fill="black" stroke="black" points="73.24,-90.73 83.81,-90.02 75.1,-83.98 73.24,-90.73"/>
</g>
<!-- 13 -->
<g id="node6" class="node">
<title>13</title>
<ellipse fill="none" stroke="black" cx="73.03" cy="-67.83" rx="27" ry="18"/>
<text text-anchor="middle" x="73.03" y="-62.78" font-family="Times,serif" font-size="14.00">13</text>
</g>
<!-- 75&#45;&gt;13 -->
<g id="edge5" class="edge">
<title>75&#45;&gt;13</title>
<path fill="none" stroke="black" d="M53.77,-70.54C53.85,-70.53 53.93,-70.52 54.01,-70.5"/>
<polygon fill="black" stroke="black" points="43.34,-75.54 52.75,-70.68 42.36,-68.61 43.34,-75.54"/>
</g>
<!-- 29&#45;&gt;13 -->
<g id="edge6" class="edge">
<title>29&#45;&gt;13</title>
<path fill="none" stroke="black" d="M97.17,-59.32C97.13,-59.33 97.08,-59.35 97.03,-59.37"/>
<polygon fill="black" stroke="black" points="106.58,-52.28 98.32,-58.91 108.91,-58.88 106.58,-52.28"/>
</g>
<!-- 53&#45;&gt;29 -->
<g id="edge11" class="edge">
<title>53&#45;&gt;29</title>
<path fill="none" stroke="black" d="M103.75,-33.25C103.85,-33.35 103.95,-33.45 104.05,-33.55"/>
<polygon fill="black" stroke="black" points="95.55,-30 105.09,-34.59 100.49,-25.05 95.55,-30"/>
</g>
<!-- 53&#45;&gt;13 -->
<g id="edge12" class="edge">
<title>53&#45;&gt;13</title>
<path fill="none" stroke="black" d="M82.91,-35.99C82.55,-37.13 82.19,-38.3 81.83,-39.47"/>
<polygon fill="black" stroke="black" points="78.62,-38 79,-48.59 85.3,-40.08 78.62,-38"/>
</g>
<!-- 47&#45;&gt;29 -->
<g id="edge9" class="edge">
<title>47&#45;&gt;29</title>
<path fill="none" stroke="black" d="M77.07,-96.38C83.71,-89.54 91.66,-81.35 98.99,-73.8"/>
<polygon fill="black" stroke="black" points="101.08,-76.67 105.54,-67.05 96.06,-71.79 101.08,-76.67"/>
</g>
<!-- 47&#45;&gt;53 -->
<g id="edge10" class="edge">
<title>47&#45;&gt;53</title>
<path fill="none" stroke="black" d="M67.22,-93.68C70.94,-80.45 76.06,-62.23 80.35,-46.97"/>
<polygon fill="black" stroke="black" points="83.68,-48.05 83.01,-37.48 76.94,-46.16 83.68,-48.05"/>
</g>
<!-- 47&#45;&gt;61 -->
<g id="edge8" class="edge">
<title>47&#45;&gt;61</title>
<path fill="none" stroke="black" d="M87.24,-104.35C87.28,-104.34 87.33,-104.32 87.37,-104.31"/>
<polygon fill="black" stroke="black" points="77.46,-110.89 86.06,-104.7 75.48,-104.18 77.46,-110.89"/>
</g>
<!-- 47&#45;&gt;13 -->
<g id="edge7" class="edge">
<title>47&#45;&gt;13</title>
<path fill="none" stroke="black" d="M66.63,-93.64C66.67,-93.48 66.71,-93.32 66.75,-93.16"/>
<polygon fill="black" stroke="black" points="69.17,-97.93 68.18,-87.38 62.38,-96.24 69.17,-97.93"/>
</g>
<!-- 61&#45;&gt;29 -->
<g id="edge20" class="edge">
<title>61&#45;&gt;29</title>
<path fill="none" stroke="black" d="M114.79,-79.28C114.82,-79.17 114.84,-79.07 114.87,-78.96"/>
<polygon fill="black" stroke="black" points="117.99,-81 116.81,-70.47 111.17,-79.44 117.99,-81"/>
</g>
<!-- 61&#45;&gt;53 -->
<g id="edge19" class="edge">
<title>61&#45;&gt;53</title>
<path fill="none" stroke="black" d="M105.61,-79.42C102.92,-69.77 99.54,-57.65 96.5,-46.74"/>
<polygon fill="black" stroke="black" points="99.96,-46.11 93.9,-37.41 93.21,-47.99 99.96,-46.11"/>
</g>
<!-- 61&#45;&gt;13 -->
<g id="edge21" class="edge">
<title>61&#45;&gt;13</title>
<path fill="none" stroke="black" d="M93.15,-83.68C93.05,-83.6 92.96,-83.53 92.86,-83.45"/>
<polygon fill="black" stroke="black" points="102.06,-86.24 92.03,-82.8 97.73,-91.74 102.06,-86.24"/>
</g>
<!-- 97 -->
<g id="node7" class="node">
<title>97</title>
<ellipse fill="none" stroke="black" cx="42.8" cy="-28.01" rx="27" ry="18"/>
<text text-anchor="middle" x="42.8" y="-22.96" font-family="Times,serif" font-size="14.00">97</text>
</g>
<!-- 97&#45;&gt;75 -->
<g id="edge13" class="edge">
<title>97&#45;&gt;75</title>
<path fill="none" stroke="black" d="M36.64,-46.04C36.61,-46.15 36.57,-46.26 36.53,-46.37"/>
<polygon fill="black" stroke="black" points="33.47,-44.52 33.55,-55.12 40.09,-46.78 33.47,-44.52"/>
</g>
<!-- 97&#45;&gt;29 -->
<g id="edge17" class="edge">
<title>97&#45;&gt;29</title>
<path fill="none" stroke="black" d="M67.64,-35.22C73.31,-36.87 79.45,-38.65 85.48,-40.4"/>
<polygon fill="black" stroke="black" points="84.06,-43.63 94.64,-43.06 86.01,-36.91 84.06,-43.63"/>
</g>
<!-- 97&#45;&gt;53 -->
<g id="edge18" class="edge">
<title>97&#45;&gt;53</title>
<path fill="none" stroke="black" d="M68.85,-22.31C68.93,-22.29 69.01,-22.27 69.09,-22.25"/>
<polygon fill="black" stroke="black" points="58.83,-28.09 67.85,-22.52 57.33,-21.25 58.83,-28.09"/>
</g>
<!-- 97&#45;&gt;47 -->
<g id="edge16" class="edge">
<title>97&#45;&gt;47</title>
<path fill="none" stroke="black" d="M46.99,-46.19C49.45,-56.83 52.61,-70.52 55.41,-82.64"/>
<polygon fill="black" stroke="black" points="51.95,-83.19 57.61,-92.15 58.77,-81.62 51.95,-83.19"/>
</g>
<!-- 97&#45;&gt;61 -->
<g id="edge15" class="edge">
<title>97&#45;&gt;61</title>
<path fill="none" stroke="black" d="M57.85,-43.42C66.63,-52.41 77.89,-63.93 87.75,-74.02"/>
<polygon fill="black" stroke="black" points="85.07,-76.29 94.56,-81 90.08,-71.4 85.07,-76.29"/>
</g>
<!-- 97&#45;&gt;13 -->
<g id="edge14" class="edge">
<title>97&#45;&gt;13</title>
<path fill="none" stroke="black" d="M55.09,-44.21C55.21,-44.36 55.32,-44.51 55.44,-44.66"/>
<polygon fill="black" stroke="black" points="50.9,-44.47 59.73,-50.32 56.47,-40.23 50.9,-44.47"/>
</g>
</g>
</svg>
